<svg data-v-29081953="" xmlns="http://www.w3.org/2000/svg" viewBox="0 0 300 300"><!----><defs data-v-29081953=""><!----></defs><rect data-v-29081953="" fill="#111F51" x="0" y="0" width="300px" height="300px" class="logo-background-square"></rect><defs data-v-29081953=""><!----></defs><g data-v-29081953="" id="49b54f93-4b00-43d4-8f06-0fae32489881" fill="#19CEDA" transform="matrix(2.018226184045395,0,0,2.018226184045395,102.55816860516155,121.62405007458946)"><path d="M4.56 7.38C2.06 7.49-0.22 7.83-0.22 10.39C-0.22 11.83 0.57 12.57 1.71 12.57C2.49 12.57 3.21 12.05 3.21 10.82L3.21 3.42L4.37 3.42L4.37 3.19L0.73 3.19L0.73 3.42L1.75 3.42L1.75 11.30C1.75 11.58 1.67 12.10 1.23 12.10C0.46 12.10 0.06 11.38 0.06 10.30C0.06 8.06 2.11 7.76 4.59 7.63C7.17 7.50 9.77 7.67 9.77 4.79C9.77 3.58 9.25 2.93 8.33 2.93C7.69 2.93 7.06 3.36 7.06 4.52L7.06 12.07L6.03 12.07L6.03 12.29L9.67 12.29L9.67 12.07L8.51 12.07L8.51 4.27C8.51 3.65 8.71 3.53 8.97 3.53C9.28 3.53 9.49 4.00 9.49 4.76C9.49 7.43 7.10 7.27 4.56 7.38ZM14.08 12.57C16.07 12.57 17.16 11.06 17.16 9.07C17.16 7.08 16.07 5.57 14.08 5.57C12.10 5.57 11.00 7.08 11.00 9.07C11.00 11.06 12.10 12.57 14.08 12.57ZM15.81 9.07C15.81 10.63 15.64 12.33 14.08 12.33C12.53 12.33 12.36 10.63 12.36 9.07C12.36 7.52 12.53 5.81 14.08 5.81C15.64 5.81 15.81 7.52 15.81 9.07ZM21.73 12.57C23.72 12.57 24.81 11.06 24.81 9.07C24.81 7.08 23.72 5.57 21.73 5.57C19.74 5.57 18.65 7.08 18.65 9.07C18.65 11.06 19.74 12.57 21.73 12.57ZM23.45 9.07C23.45 10.63 23.28 12.33 21.73 12.33C20.17 12.33 20.01 10.63 20.01 9.07C20.01 7.52 20.17 5.81 21.73 5.81C23.28 5.81 23.45 7.52 23.45 9.07ZM28.21 15.09L28.21 11.42L28.29 11.42C28.64 12.17 29.32 12.57 30.13 12.57C32.00 12.57 32.70 10.91 32.70 9.03C32.70 7.24 32.02 5.57 30.23 5.57C29.27 5.57 28.62 6.22 28.29 7.13L28.21 7.13L28.21 5.67C27.55 5.81 26.94 5.85 26.26 5.85L25.97 5.85L25.97 6.06L26.96 6.06L26.96 15.09L26.04 15.09L26.04 15.30L29.13 15.30L29.13 15.09ZM28.18 9.06C28.18 7.88 28.71 5.96 29.89 5.96C31.21 5.96 31.35 7.71 31.35 9.03C31.35 10.37 31.26 12.18 29.92 12.18C28.63 12.18 28.18 10.85 28.18 9.56ZM40.75 3.21C43.12 3.21 43.75 4.94 43.75 7.55C43.75 10.35 43.37 12.07 40.63 12.07L39.77 12.07L39.77 6.31C39.77 6.31 39.52 6.41 39.19 6.41C38.91 6.41 38.57 6.34 38.32 6.13L38.32 12.07L37.30 12.07L37.30 12.29L40.92 12.29C44.07 12.29 45.46 10.57 45.46 7.42C45.46 4.24 43.65 2.91 40.81 2.91C39.19 2.91 38.15 3.67 38.15 4.66C38.15 5.32 38.64 5.75 39.16 5.75C39.61 5.75 40.10 5.46 40.10 4.84C40.10 4.35 39.75 4.05 39.35 4.05C38.99 4.05 38.78 4.26 38.70 4.48C38.67 4.55 38.63 4.59 38.56 4.59C38.47 4.59 38.43 4.54 38.43 4.47C38.43 4.30 38.58 3.95 38.88 3.72C39.34 3.36 39.97 3.21 40.75 3.21ZM51.73 6.64C51.73 6.72 51.66 6.76 51.60 6.76C51.53 6.76 51.49 6.72 51.48 6.64C51.44 6.44 51.23 6.27 50.92 6.27C50.50 6.27 50.25 6.62 50.25 7.03C50.25 7.45 50.61 7.77 51.03 7.77C51.59 7.77 52.00 7.32 52.00 6.78C52.00 6.03 51.51 5.57 50.82 5.57C49.90 5.57 49.38 6.27 49.06 7.13L48.97 7.13L48.97 5.67C48.31 5.81 47.67 5.85 47.00 5.85L46.70 5.85L46.70 6.06L47.70 6.06L47.70 12.08L46.77 12.08L46.77 12.29L49.97 12.29L49.97 12.08L48.94 12.08L48.94 9.48C48.94 8.01 49.36 5.80 50.82 5.80C51.31 5.80 51.73 6.15 51.73 6.64ZM55.76 5.57C53.72 5.57 52.64 7.03 52.64 9.07C52.64 11.09 53.59 12.57 55.61 12.57C57.04 12.57 57.93 11.62 58.23 10.30L57.97 10.28C57.72 11.30 57.08 12.18 55.93 12.18C54.53 12.18 54.00 11.03 54.00 9.63L54.00 9.23L54.66 9.23C56.38 9.23 58.23 9.09 58.23 7.36C58.23 6.09 57.04 5.57 55.76 5.57ZM54.00 8.97L54.00 8.58C54.00 7.29 54.35 5.81 55.64 5.81C56.52 5.81 56.87 6.48 56.87 7.36C56.87 8.75 55.87 8.97 54.49 8.97ZM62.13 5.57C61.01 5.57 59.88 6.03 59.88 7.15C59.88 7.71 60.28 8.15 60.84 8.15C61.26 8.15 61.63 7.83 61.63 7.41C61.63 7 61.38 6.65 60.96 6.65C60.65 6.65 60.44 6.82 60.40 7.01C60.38 7.10 60.34 7.14 60.27 7.14C60.21 7.14 60.14 7.10 60.14 7.01C60.14 6.59 60.56 5.85 61.91 5.85C63.28 5.85 63.63 6.71 63.63 8.08L63.63 8.76C61.77 8.72 59.37 8.89 59.37 10.75C59.37 11.98 60.44 12.57 61.67 12.57C62.69 12.57 63.49 12.01 63.74 11.02L63.83 11.02C63.83 11.76 63.91 12.57 64.65 12.57C65.66 12.57 65.97 11.41 66.07 10.40L65.81 10.37C65.72 11.28 65.48 11.98 65.13 11.98C64.93 11.98 64.88 11.73 64.88 11.41L64.88 8.93C64.88 6.61 64.46 5.57 62.13 5.57ZM63.63 9.95C63.63 11.09 63.14 12.18 62.01 12.18C61.14 12.18 60.73 11.56 60.73 10.70C60.73 9.17 62.12 8.97 63.63 9.02ZM69.76 12.08L68.84 12.08L68.84 9.55C68.84 7.95 69.12 5.96 70.71 5.96C71.68 5.96 71.75 7.08 71.75 8.12L71.75 12.08L70.83 12.08L70.83 12.29L73.85 12.29L73.85 12.08L72.93 12.08L72.93 9.55C72.93 7.95 73.21 5.96 74.80 5.96C75.77 5.96 75.84 7.08 75.84 8.12L75.84 12.08L74.91 12.08L74.91 12.29L78.01 12.29L78.01 12.08L77.08 12.08L77.08 8.44C77.08 6.71 76.80 5.57 75.07 5.57C74.13 5.57 73.35 6.17 73.04 7.07L72.95 7.07C72.76 6.13 72.20 5.57 70.98 5.57C70.04 5.57 69.26 6.17 68.95 7.07L68.87 7.07L68.87 5.67C68.19 5.81 67.58 5.85 66.89 5.85L66.60 5.85L66.60 6.06L67.59 6.06L67.59 12.08L66.67 12.08L66.67 12.29L69.76 12.29Z"></path></g><defs data-v-29081953=""><!----></defs><g data-v-29081953="" id="bfe3e700-c2ae-45c9-ab8e-2b40f745b739" stroke="none" fill="#19CEDA" transform="matrix(0.8298233351550766,0,0,0.8298233351550766,38.002002451572245,123.44607132215745)"><path d="M36.801 32.254a.69.69 0 0 0-.293-.059c-.145-.007-.293-.007-.449-.008-.36-.001-.731-.003-1.109-.081-.401-.083-.922-.411-1.096-.853-.178-.452-.096-1.005.04-1.372.419-1.13.863-2.271 1.292-3.374.256-.658.512-1.316.764-1.975.067-.176.066-.265.063-.295-.026-.014-.108-.046-.294-.048-.802-.005-1.604-.004-2.406-.003l-1.004.001-1.008-.001c-.839-.001-1.678-.002-2.517.002-.219.001-.271.038-.272.039 0 0-.043.049-.067.275a156.664 156.664 0 0 1-.307 2.709c-.142 1.156-.287 2.312-.431 3.468-.167 1.336-.334 2.671-.497 4.007-.029.236.013.303.013.304 0 0 .066.055.327.056.394.002.788.001 1.182 0l.704-.001c.201 0 .403 0 .604.002.601.004 1.057.183 1.355.531.197.23.41.648.308 1.331-.242 1.61-.521 3.239-.79 4.815l-.119.695c-.026.155-.067.523.127.6a.4.4 0 0 0 .147.031c.191 0 .334-.221.403-.353 2.025-3.917 3.692-7.155 5.245-10.19a.68.68 0 0 0 .085-.253z"></path><path d="M44.918 17.687c-3.807-3.552-8.016-5.352-12.51-5.352-.134 0-.271.002-.408.007a11.219 11.219 0 0 0-.408-.007c-4.493 0-8.703 1.799-12.51 5.352-4.674 4.359-7.838 12.478-3.745 19.998.376.692.746 1.406 1.103 2.095l.186.359a95.251 95.251 0 0 0 1.689 3.164c1.518 2.679 2.472 5.242 2.914 7.845.105.584.183 1.198.232 1.819.161 2.081 1.396 4.393 3.388 6.347l.066.061A10.754 10.754 0 0 0 32 62.037c2.609 0 5.124-.946 7.085-2.662l.066-.061c1.992-1.953 3.227-4.266 3.388-6.342.049-.626.127-1.24.235-1.836.44-2.591 1.394-5.154 2.912-7.833a90.691 90.691 0 0 0 1.697-3.181l.178-.342c.357-.692.726-1.403 1.103-2.095 4.092-7.52.929-15.639-3.746-19.998zm.954 18.477c-.391.721-.77 1.45-1.134 2.154l-.186.362c-.553 1.066-1.073 2.073-1.628 3.054a29.99 29.99 0 0 0-2.225 4.82 4.976 4.976 0 0 1-4.686 3.338h-8.025a4.975 4.975 0 0 1-4.686-3.338 29.831 29.831 0 0 0-2.225-4.82c-.555-.98-1.076-1.988-1.638-3.073l-.176-.342c-.364-.704-.743-1.433-1.134-2.154-3.286-6.034-.685-12.603 3.12-16.155 3.2-2.983 6.682-4.496 10.344-4.496.115 0 .235.002.352.007h.112c.117-.005.237-.007.352-.007 3.662 0 7.144 1.513 10.344 4.496 3.803 3.551 6.404 10.121 3.119 16.154zM5.97 45.175c-.022.289.041.601.214.938.456.889 1.448 1.456 2.446 1.201a2.15 2.15 0 0 0 .41-.152c.899-.44 1.767-.956 2.604-1.506.963-.633 1.191-1.753.632-2.716-.546-.942-1.687-1.331-2.68-.831-.895.45-1.803.915-2.591 1.521-.567.435-.988.94-1.035 1.545zM53.751 41.916c-1.164.001-1.889.516-2.203 1.399-.302.849-.051 1.766.732 2.29.81.541 1.663 1.021 2.522 1.483 1.065.572 2.277.237 2.845-.74.57-.982.255-2.194-.774-2.834a38.89 38.89 0 0 0-2.321-1.332c-.31-.164-.674-.225-.801-.266zM47.826 7.956c.004-1.15-.536-1.918-1.389-2.211-.868-.298-1.85-.012-2.366.776-.518.791-.983 1.62-1.432 2.453-.587 1.089-.274 2.233.734 2.827 1.004.593 2.164.305 2.829-.739.478-.752.928-1.523 1.352-2.306.166-.308.23-.672.272-.8zM8.386 15.728c-1.153.002-1.921.547-2.206 1.401-.283.849-.016 1.797.746 2.298a32.63 32.63 0 0 0 2.525 1.477c1.068.571 2.267.233 2.839-.754.573-.988.261-2.176-.781-2.826a37.513 37.513 0 0 0-2.321-1.331c-.31-.165-.674-.225-.802-.265zM57.9 17.661c-.004-1.418-1.547-2.414-2.95-1.738-.851.41-1.665.906-2.469 1.406-1.038.645-1.346 1.842-.773 2.828.57.98 1.774 1.312 2.844.743a48.048 48.048 0 0 0 2.389-1.381c.641-.39.979-.972.959-1.858zM18.239 5.653c-1.578 0-2.568 1.587-1.844 3.014.415.818.902 1.602 1.39 2.38.659 1.048 1.816 1.348 2.822.766 1.014-.587 1.338-1.728.761-2.82a47.119 47.119 0 0 0-1.332-2.319c-.404-.669-1.002-1.028-1.797-1.021zM34.059 5.449c0-.531.026-1.064-.005-1.594-.064-1.095-.951-1.895-2.061-1.893-1.11.003-2.003.807-2.044 1.906a41.061 41.061 0 0 0-.001 2.936c.037 1.096.931 1.934 2.017 1.949a2.046 2.046 0 0 0 2.093-1.963c.021-.445.002-.893.001-1.341zM5.846 29.494c-.474 0-.948-.013-1.421.003-1.162.038-2 .88-2.017 2.013-.017 1.14.796 2.038 1.946 2.081a38.58 38.58 0 0 0 2.926-.001c1.146-.045 1.959-.954 1.936-2.092A2.006 2.006 0 0 0 7.268 29.5c-.474-.022-.948-.004-1.422-.006zM58.209 29.494c-.474 0-.948-.014-1.421.003-1.157.04-1.991.892-2.003 2.027-.012 1.139.805 2.027 1.961 2.067.974.034 1.952.037 2.926-.002 1.109-.045 1.917-.928 1.922-2.022.005-1.14-.821-2.019-1.963-2.068-.474-.021-.948-.004-1.422-.005z"></path></g><defs data-v-29081953=""><!----></defs><g data-v-29081953="" id="d2fc6357-8ee9-449e-af5b-c5262584f7b8" fill="#19CEDA" transform="matrix(0.4686987116862386,0,0,0.4686987116862386,101.93605332490333,161.1671202730055)"><path d="M0.42 3.64L0.38 3.08L4.16 3.08L4.16 3.08Q5.48 3.08 6.34 3.19L6.34 3.19L6.34 3.19Q7.16 3.29 7.85 3.69L7.85 3.69L7.85 3.69Q8.80 4.27 9.31 5.24L9.31 5.24L9.31 5.24Q9.80 6.21 9.80 7.39L9.80 7.39L9.80 7.39Q9.80 8.05 9.66 8.65L9.66 8.65L9.66 8.65Q9.50 9.29 9.11 9.98L9.11 9.98L9.11 9.98Q8.68 10.73 8.12 11.21L8.12 11.21L8.12 11.21Q7.49 11.76 6.52 12.08L6.52 12.08L6.52 12.08Q5.52 12.41 4.25 12.41L4.25 12.41L0.63 12.41L0.62 11.87L0.99 11.87L0.99 11.87Q1.51 11.87 1.61 11.79L1.61 11.79L1.61 11.79Q1.72 11.70 1.72 11.25L1.72 11.25L1.72 4.14L1.72 4.14Q1.72 3.77 1.63 3.71L1.63 3.71L1.63 3.71Q1.52 3.64 1.00 3.64L1.00 3.64L0.42 3.64ZM2.86 4.39L2.86 11.22L2.86 11.22Q2.86 11.67 3.02 11.77L3.02 11.77L3.02 11.77Q3.18 11.87 4.05 11.87L4.05 11.87L4.05 11.87Q5.10 11.87 5.89 11.61L5.89 11.61L5.89 11.61Q6.75 11.35 7.18 10.99L7.18 10.99L7.18 10.99Q7.68 10.58 7.98 10.05L7.98 10.05L7.98 10.05Q8.29 9.52 8.42 8.96L8.42 8.96L8.42 8.96Q8.54 8.41 8.54 7.82L8.54 7.82L8.54 7.82Q8.54 7.03 8.27 6.34L8.27 6.34L8.27 6.34Q8.00 5.65 7.48 5.05L7.48 5.05L7.48 5.05Q6.95 4.46 6.04 4.09L6.04 4.09L6.04 4.09Q5.11 3.73 3.95 3.73L3.95 3.73L3.43 3.73L3.43 3.73Q3.07 3.73 2.97 3.85L2.97 3.85L2.97 3.85Q2.86 3.99 2.86 4.39L2.86 4.39ZM18.36 3.64L17.77 3.64L17.79 3.08L21.30 3.08L21.30 3.64L21.07 3.64L21.07 3.64Q20.52 3.64 20.35 3.73L20.35 3.73L20.35 3.73Q20.21 3.81 20.21 4.28L20.21 4.28L20.21 11.22L20.21 11.22Q20.21 11.68 20.32 11.77L20.32 11.77L20.32 11.77Q20.43 11.87 20.97 11.87L20.97 11.87L21.51 11.87L21.53 12.41L17.94 12.41L17.93 11.87L18.29 11.87L18.29 11.87Q18.85 11.87 18.97 11.77L18.97 11.77L18.97 11.77Q19.08 11.67 19.08 11.25L19.08 11.25L19.08 4.14L19.08 4.14Q19.08 3.77 18.98 3.71L18.98 3.71L18.98 3.71Q18.87 3.64 18.36 3.64L18.36 3.64ZM29.24 10.04L29.24 10.04L29.73 9.98L29.91 10.85L29.91 10.85Q30.02 11.33 30.09 11.41L30.09 11.41L30.09 11.41Q30.16 11.49 30.57 11.64L30.57 11.64L30.57 11.64Q31.41 11.95 32.31 11.95L32.31 11.95L32.31 11.95Q33.09 11.95 33.63 11.49L33.63 11.49L33.63 11.49Q34.17 11.04 34.17 10.26L34.17 10.26L34.17 10.26Q34.17 9.65 33.71 9.21L33.71 9.21L33.71 9.21Q33.23 8.76 32.38 8.30L32.38 8.30L31.80 7.98L31.80 7.98Q31.06 7.55 30.82 7.36L30.82 7.36L30.82 7.36Q30.46 7.08 30.15 6.59L30.15 6.59L30.15 6.59Q29.84 6.10 29.84 5.46L29.84 5.46L29.84 5.46Q29.84 4.39 30.68 3.68L30.68 3.68L30.68 3.68Q31.52 2.97 32.63 2.97L32.63 2.97L32.63 2.97Q32.91 2.97 33.26 3.04L33.26 3.04L33.26 3.04Q33.46 3.08 33.79 3.17L33.79 3.17L34.03 3.25L34.03 3.25Q34.13 3.25 34.17 3.16L34.17 3.16L34.17 3.16Q34.22 3.05 34.22 2.98L34.22 2.98L34.23 2.88L34.71 2.85L34.92 5.41L34.42 5.43L34.30 4.18L34.30 4.18Q33.55 3.62 32.39 3.62L32.39 3.62L32.39 3.62Q31.75 3.62 31.24 4.05L31.24 4.05L31.24 4.05Q30.76 4.47 30.76 5.12L30.76 5.12L30.76 5.12Q30.76 5.72 31.21 6.17L31.21 6.17L31.21 6.17Q31.64 6.60 32.51 7.08L32.51 7.08L33.28 7.50L33.28 7.50Q34.23 8.03 34.77 8.59L34.77 8.59L34.77 8.59Q35.30 9.15 35.30 9.92L35.30 9.92L35.30 9.92Q35.30 10.99 34.45 11.76L34.45 11.76L34.45 11.76Q33.58 12.54 32.12 12.54L32.12 12.54L32.12 12.54Q31.56 12.54 31.06 12.41L31.06 12.41L31.06 12.41Q30.56 12.29 30.50 12.29L30.50 12.29L30.50 12.29Q30.25 12.29 30.25 12.58L30.25 12.58L30.26 12.76L29.78 12.80L29.78 12.80Q29.72 12.41 29.24 10.04ZM43.87 8.02L43.87 8.02L43.87 8.02Q43.87 6.86 44.34 5.83L44.34 5.83L44.34 5.83Q44.80 4.85 45.55 4.27L45.55 4.27L45.55 4.27Q46.30 3.69 47.20 3.37L47.20 3.37L47.20 3.37Q48.09 3.05 48.93 3.05L48.93 3.05L48.93 3.05Q49.80 3.05 50.47 3.16L50.47 3.16L50.47 3.16Q51.10 3.26 51.39 3.37L51.39 3.37L51.39 3.37Q51.70 3.48 51.73 3.48L51.73 3.48L51.73 3.48Q51.91 3.48 51.93 3.41L51.93 3.41L51.93 3.41Q51.95 3.33 51.95 3.09L51.95 3.09L51.95 2.97L52.49 2.97L52.49 2.97Q52.53 4.30 52.66 5.64L52.66 5.64L52.15 5.65L52.15 5.65Q52.12 5.40 52.11 5.26L52.11 5.26L52.11 5.26Q52.11 5.20 52.10 5.13L52.10 5.13L52.10 5.13Q52.10 5.07 52.09 5.02L52.09 5.02L52.09 5.02Q52.08 4.98 52.08 4.95L52.08 4.95L52.08 4.95Q52.06 4.84 52.06 4.74L52.06 4.74L52.06 4.74Q52.06 4.68 52.01 4.59L52.01 4.59L52.01 4.59Q52.01 4.57 51.98 4.55L51.98 4.55L51.98 4.55Q51.95 4.52 51.95 4.50L51.95 4.50L51.95 4.50Q51.93 4.44 51.86 4.41L51.86 4.41L51.86 4.41Q51.82 4.38 51.79 4.37L51.79 4.37L51.79 4.37Q51.76 4.36 51.73 4.35L51.73 4.35L51.73 4.35Q51.72 4.35 51.70 4.33L51.70 4.33L51.70 4.33Q51.67 4.31 51.63 4.29L51.63 4.29L51.63 4.29Q51.59 4.27 51.55 4.25L51.55 4.25L51.55 4.25Q51.32 4.16 51.30 4.14L51.30 4.14L51.30 4.14Q50.95 3.96 50.31 3.83L50.31 3.83L50.31 3.83Q49.64 3.71 48.97 3.71L48.97 3.71L48.97 3.71Q47.25 3.71 46.16 4.84L46.16 4.84L46.16 4.84Q45.05 5.99 45.06 7.62L45.06 7.62L45.06 7.62Q45.06 9.35 46.27 10.69L46.27 10.69L46.27 10.69Q47.48 12.02 49.29 12.02L49.29 12.02L49.29 12.02Q50.30 12.02 51.24 11.49L51.24 11.49L51.24 11.49Q52.19 10.94 52.22 10.58L52.22 10.58L52.26 9.41L52.75 9.41L52.67 11.45L52.67 11.45Q52.60 11.49 52.47 11.57L52.47 11.57L52.47 11.57Q52.42 11.60 51.95 11.85L51.95 11.85L51.95 11.85Q51.58 12.05 51.13 12.23L51.13 12.23L51.13 12.23Q50.77 12.39 50.12 12.51L50.12 12.51L50.12 12.51Q49.51 12.63 48.95 12.64L48.95 12.64L48.95 12.64Q46.57 12.64 45.21 11.39L45.21 11.39L45.21 11.39Q43.87 10.14 43.87 8.02ZM61.17 7.83L61.17 7.83L61.17 7.83Q61.17 6.62 61.57 5.68L61.57 5.68L61.57 5.68Q61.99 4.72 62.68 4.12L62.68 4.12L62.68 4.12Q63.37 3.51 64.23 3.19L64.23 3.19L64.23 3.19Q65.07 2.88 66.02 2.88L66.02 2.88L66.02 2.88Q67.28 2.88 68.33 3.40L68.33 3.40L68.33 3.40Q69.41 3.93 70.12 5.07L70.12 5.07L70.12 5.07Q70.82 6.17 70.83 7.75L70.83 7.75L70.83 7.75Q70.83 8.70 70.52 9.54L70.52 9.54L70.52 9.54Q70.21 10.38 69.61 11.10L69.61 11.10L69.61 11.10Q69.00 11.81 68.07 12.22L68.07 12.22L68.07 12.22Q67.10 12.63 65.91 12.64L65.91 12.64L65.91 12.64Q64.78 12.64 63.84 12.23L63.84 12.23L63.84 12.23Q62.90 11.83 62.34 11.14L62.34 11.14L62.34 11.14Q61.77 10.45 61.48 9.60L61.48 9.60L61.48 9.60Q61.17 8.72 61.17 7.83ZM62.43 7.38L62.43 7.38L62.43 7.38Q62.43 8.52 62.86 9.60L62.86 9.60L62.86 9.60Q63.26 10.64 64.19 11.33L64.19 11.33L64.19 11.33Q65.10 12.03 66.29 12.04L66.29 12.04L66.29 12.04Q67.66 12.04 68.60 11.01L68.60 11.01L68.60 11.01Q69.55 9.97 69.55 8.10L69.55 8.10L69.55 8.10Q69.55 5.99 68.39 4.72L68.39 4.72L68.39 4.72Q67.24 3.46 65.73 3.45L65.73 3.45L65.73 3.45Q65.21 3.45 64.66 3.65L64.66 3.65L64.66 3.65Q64.12 3.85 63.62 4.25L63.62 4.25L63.62 4.25Q63.07 4.68 62.75 5.48L62.75 5.48L62.75 5.48Q62.43 6.27 62.43 7.38ZM79.43 3.64L78.94 3.64L78.94 3.08L82.46 3.08L82.44 3.64L81.70 3.64L81.70 3.64Q81.37 3.64 81.37 3.82L81.37 3.82L81.37 3.82Q81.37 3.98 81.56 4.48L81.56 4.48L84.16 10.94L87.10 4.18L87.10 4.18Q87.17 3.97 87.18 3.92L87.18 3.92L87.18 3.92Q87.18 3.79 87.08 3.74L87.08 3.74L87.08 3.74Q86.98 3.68 86.84 3.65L86.84 3.65L86.84 3.65Q86.75 3.64 86.49 3.64L86.49 3.64L86.04 3.64L86.02 3.08L88.85 3.08L88.83 3.64L88.42 3.64L88.42 3.64Q88.10 3.64 87.94 3.83L87.94 3.83L87.94 3.83Q87.86 3.93 87.40 4.94L87.40 4.94L87.40 4.94Q87.19 5.46 87.12 5.57L87.12 5.57L83.99 12.63L83.75 12.63L80.50 4.73L80.50 4.73Q80.18 3.93 80.04 3.79L80.04 3.79L80.04 3.79Q79.88 3.63 79.43 3.64L79.43 3.64ZM96.61 3.64L96.59 3.08L103.80 3.08L103.80 3.08Q103.82 4.14 103.87 5.28L103.87 5.28L103.33 5.30L103.33 5.30Q103.31 4.66 103.26 4.25L103.26 4.25L103.26 4.25Q103.22 3.89 103.16 3.80L103.16 3.80L103.16 3.80Q103.11 3.71 102.99 3.69L102.99 3.69L102.99 3.69Q102.89 3.68 102.31 3.68L102.31 3.68L99.93 3.68L99.93 3.68Q99.38 3.68 99.24 3.77L99.24 3.77L99.24 3.77Q99.11 3.86 99.11 4.33L99.11 4.33L99.11 6.28L99.11 6.28Q99.11 6.69 99.17 6.76L99.17 6.76L99.17 6.76Q99.24 6.84 99.58 6.84L99.58 6.84L101.69 6.84L101.69 6.84Q102.05 6.84 102.14 6.73L102.14 6.73L102.14 6.73Q102.22 6.63 102.22 6.14L102.22 6.14L102.22 5.61L102.74 5.63L102.74 8.97L102.22 8.97L102.22 8.24L102.22 8.24Q102.22 7.66 102.15 7.57L102.15 7.57L102.15 7.57Q102.07 7.46 101.72 7.46L101.72 7.46L99.62 7.46L99.62 7.46Q99.29 7.46 99.20 7.54L99.20 7.54L99.20 7.54Q99.11 7.63 99.11 7.89L99.11 7.89L99.11 11.20L99.11 11.20Q99.11 11.57 99.20 11.67L99.20 11.67L99.20 11.67Q99.29 11.77 99.56 11.77L99.56 11.77L99.56 11.77Q102.48 11.75 103.00 11.69L103.00 11.69L103.00 11.69Q103.52 11.63 103.61 11.38L103.61 11.38L103.61 11.36L103.62 11.35L103.84 10.17L104.32 10.25L103.97 12.41L96.87 12.41L96.87 11.87L97.24 11.87L97.24 11.87Q97.80 11.87 97.88 11.80L97.88 11.80L97.88 11.80Q97.98 11.72 97.98 11.33L97.98 11.33L97.98 4.24L97.98 4.24Q97.98 3.82 97.83 3.73L97.83 3.73L97.83 3.73Q97.66 3.64 97.00 3.64L97.00 3.64L96.61 3.64ZM112.53 3.64L112.14 3.64L112.16 3.08L115.38 3.08L115.38 3.08Q116.51 3.08 117.11 3.21L117.11 3.21L117.11 3.21Q117.76 3.37 118.22 3.75L118.22 3.75L118.22 3.75Q119.23 4.57 119.23 5.71L119.23 5.71L119.23 5.71Q119.23 6.43 118.75 7.04L118.75 7.04L118.75 7.04Q118.26 7.66 117.23 7.92L117.23 7.92L119.92 11.49L119.92 11.49Q120.22 11.87 120.52 11.87L120.52 11.87L121.12 11.87L121.15 12.41L119.12 12.41L116.12 8.10L115.95 8.10L115.95 8.10Q115.91 8.10 115.86 8.11L115.86 8.11L115.86 8.11Q115.80 8.11 115.79 8.11L115.79 8.11L115.79 8.11Q114.91 8.11 114.51 8.03L114.51 8.03L114.51 11.46L114.51 11.46Q114.51 11.76 114.65 11.81L114.65 11.81L114.65 11.81Q114.78 11.87 115.48 11.87L115.48 11.87L116.19 11.87L116.16 12.41L112.44 12.41L112.44 11.87L112.76 11.87L112.76 11.87Q113.22 11.87 113.29 11.81L113.29 11.81L113.29 11.81Q113.37 11.74 113.37 11.46L113.37 11.46L113.37 4.14L113.37 4.14Q113.37 3.82 113.18 3.73L113.18 3.73L113.18 3.73Q112.96 3.64 112.53 3.64L112.53 3.64ZM114.51 4.28L114.51 7.57L114.51 7.57Q114.69 7.70 115.40 7.71L115.40 7.71L115.40 7.71Q116.68 7.71 117.26 7.27L117.26 7.27L117.26 7.27Q117.84 6.84 117.84 5.92L117.84 5.92L117.84 5.92Q117.84 4.92 117.07 4.27L117.07 4.27L117.07 4.27Q116.31 3.64 114.93 3.64L114.93 3.64L114.93 3.64Q114.68 3.64 114.60 3.75L114.60 3.75L114.60 3.75Q114.52 3.84 114.51 4.28L114.51 4.28ZM138.75 5.35L138.25 5.33L138.25 5.33Q138.37 4.17 138.46 3.08L138.46 3.08L146.54 3.08L146.54 3.08Q146.45 4.13 146.43 4.53L146.43 4.53L146.43 4.53Q146.38 5.26 146.36 5.32L146.36 5.32L145.87 5.30L145.87 5.30Q145.95 4.34 145.95 4.16L145.95 4.16L145.95 4.16Q145.95 3.88 145.80 3.79L145.80 3.79L145.80 3.79Q145.63 3.69 145.23 3.69L145.23 3.69L143.62 3.69L143.62 3.69Q143.12 3.69 142.99 3.79L142.99 3.79L142.99 3.79Q142.90 3.87 142.89 4.36L142.89 4.36L142.89 11.22L142.89 11.22Q142.89 11.66 143.04 11.76L143.04 11.76L143.04 11.76Q143.19 11.87 143.71 11.87L143.71 11.87L144.27 11.87L144.28 12.41L140.59 12.40L140.59 11.87L140.81 11.87L140.81 11.87Q141.48 11.87 141.62 11.79L141.62 11.79L141.62 11.79Q141.76 11.70 141.76 11.28L141.76 11.28L141.76 4.48L141.76 4.48Q141.76 3.92 141.66 3.80L141.66 3.80L141.66 3.80Q141.57 3.69 141.14 3.69L141.14 3.69L139.67 3.69L139.67 3.69Q139.49 3.69 139.42 3.71L139.42 3.71L139.42 3.71Q139.35 3.72 139.24 3.72L139.24 3.72L139.24 3.72Q139.21 3.72 139.10 3.79L139.10 3.79L139.10 3.79Q139.02 3.84 138.99 3.86L138.99 3.86L138.99 3.86Q138.96 3.88 138.92 3.99L138.92 3.99L138.92 3.99Q138.89 4.05 138.87 4.14L138.87 4.14L138.87 4.14Q138.84 4.21 138.82 4.36L138.82 4.36L138.82 4.36Q138.79 4.59 138.79 4.61L138.79 4.61L138.79 4.61Q138.79 4.80 138.78 4.95L138.78 4.95L138.78 4.95Q138.78 5.02 138.77 5.15L138.77 5.15L138.77 5.15Q138.76 5.29 138.75 5.35L138.75 5.35ZM154.64 3.64L154.27 3.64L154.27 3.08L157.76 3.08L157.76 3.64L157.40 3.64L157.40 3.64Q156.89 3.64 156.74 3.75L156.74 3.75L156.74 3.75Q156.60 3.84 156.60 4.25L156.60 4.25L156.60 6.91L161.15 6.91L161.15 4.14L161.15 4.14Q161.15 3.77 161.05 3.71L161.05 3.71L161.05 3.71Q160.95 3.64 160.42 3.64L160.42 3.64L159.83 3.64L159.82 3.08L163.37 3.08L163.37 3.64L162.98 3.64L162.98 3.64Q162.50 3.64 162.39 3.74L162.39 3.74L162.39 3.74Q162.29 3.83 162.29 4.22L162.29 4.22L162.29 11.29L162.29 11.29Q162.29 11.67 162.42 11.77L162.42 11.77L162.42 11.77Q162.58 11.87 163.13 11.87L163.13 11.87L163.60 11.87L163.58 12.41L160.10 12.41L160.08 11.87L160.49 11.87L160.49 11.87Q160.96 11.87 161.05 11.77L161.05 11.77L161.05 11.77Q161.15 11.67 161.15 11.25L161.15 11.25L161.15 7.58L156.60 7.58L156.60 11.25L156.60 11.25Q156.60 11.67 156.75 11.77L156.75 11.77L156.75 11.77Q156.91 11.87 157.61 11.87L157.61 11.87L158.01 11.87L157.99 12.41L154.40 12.41L154.39 11.87L154.75 11.87L154.75 11.87Q155.30 11.87 155.37 11.80L155.37 11.80L155.37 11.80Q155.46 11.70 155.46 11.25L155.46 11.25L155.46 4.09L155.46 4.09Q155.46 3.76 155.33 3.71L155.33 3.71L155.33 3.71Q155.16 3.64 154.64 3.64L154.64 3.64ZM171.35 3.64L171.34 3.08L178.55 3.08L178.55 3.08Q178.56 4.14 178.62 5.28L178.62 5.28L178.07 5.30L178.07 5.30Q178.06 4.66 178.00 4.25L178.00 4.25L178.00 4.25Q177.96 3.89 177.91 3.80L177.91 3.80L177.91 3.80Q177.85 3.71 177.73 3.69L177.73 3.69L177.73 3.69Q177.64 3.68 177.05 3.68L177.05 3.68L174.67 3.68L174.67 3.68Q174.13 3.68 173.98 3.77L173.98 3.77L173.98 3.77Q173.86 3.86 173.86 4.33L173.86 4.33L173.86 6.28L173.86 6.28Q173.86 6.69 173.91 6.76L173.91 6.76L173.91 6.76Q173.98 6.84 174.32 6.84L174.32 6.84L176.44 6.84L176.44 6.84Q176.80 6.84 176.88 6.73L176.88 6.73L176.88 6.73Q176.96 6.63 176.97 6.14L176.97 6.14L176.97 5.61L177.48 5.63L177.48 8.97L176.97 8.97L176.97 8.24L176.97 8.24Q176.97 7.66 176.89 7.57L176.89 7.57L176.89 7.57Q176.81 7.46 176.46 7.46L176.46 7.46L174.36 7.46L174.36 7.46Q174.03 7.46 173.94 7.54L173.94 7.54L173.94 7.54Q173.86 7.63 173.86 7.89L173.86 7.89L173.86 11.20L173.86 11.20Q173.86 11.57 173.94 11.67L173.94 11.67L173.94 11.67Q174.03 11.77 174.30 11.77L174.30 11.77L174.30 11.77Q177.22 11.75 177.75 11.69L177.75 11.69L177.75 11.69Q178.27 11.63 178.35 11.38L178.35 11.38L178.36 11.36L178.36 11.35L178.59 10.17L179.07 10.25L178.72 12.41L171.62 12.41L171.62 11.87L171.99 11.87L171.99 11.87Q172.55 11.87 172.63 11.80L172.63 11.80L172.63 11.80Q172.72 11.72 172.72 11.33L172.72 11.33L172.72 4.24L172.72 4.24Q172.72 3.82 172.57 3.73L172.57 3.73L172.57 3.73Q172.40 3.64 171.75 3.64L171.75 3.64L171.35 3.64ZM197.10 3.64L196.51 3.64L196.53 3.08L200.04 3.08L200.04 3.64L199.81 3.64L199.81 3.64Q199.26 3.64 199.09 3.73L199.09 3.73L199.09 3.73Q198.95 3.81 198.95 4.28L198.95 4.28L198.95 11.22L198.95 11.22Q198.95 11.68 199.06 11.77L199.06 11.77L199.06 11.77Q199.17 11.87 199.71 11.87L199.71 11.87L200.25 11.87L200.27 12.41L196.68 12.41L196.67 11.87L197.03 11.87L197.03 11.87Q197.59 11.87 197.71 11.77L197.71 11.77L197.71 11.77Q197.82 11.67 197.82 11.25L197.82 11.25L197.82 4.14L197.82 4.14Q197.82 3.77 197.72 3.71L197.72 3.71L197.72 3.71Q197.61 3.64 197.10 3.64L197.10 3.64ZM211.17 12.41L208.15 12.41L208.15 11.87L208.28 11.87L208.28 11.87Q208.87 11.87 208.99 11.77L208.99 11.77L208.99 11.77Q209.11 11.68 209.13 11.21L209.13 11.21L209.25 4.38L209.25 4.38Q209.25 4.35 209.26 4.28L209.26 4.28L209.26 4.28Q209.27 4.21 209.27 4.17L209.27 4.17L209.27 4.01L209.27 4.01Q209.27 3.76 209.19 3.71L209.19 3.71L209.19 3.71Q209.10 3.64 208.87 3.64L208.87 3.64L208.16 3.64L208.15 3.08L210.26 3.08L213.45 10.55L216.59 3.08L218.83 3.08L218.83 3.64L218.35 3.64L218.35 3.64Q217.90 3.64 217.78 3.71L217.78 3.71L217.78 3.71Q217.62 3.79 217.62 4.08L217.62 4.08L217.62 11.22L217.62 11.22Q217.62 11.68 217.73 11.77L217.73 11.77L217.73 11.77Q217.85 11.87 218.48 11.87L218.48 11.87L218.76 11.87L218.77 12.41L215.37 12.41L215.35 11.87L215.63 11.87L215.63 11.87Q216.25 11.87 216.36 11.77L216.36 11.77L216.36 11.77Q216.49 11.66 216.49 11.25L216.49 11.25L216.49 4.83L214.33 9.91L213.48 12.02L213.48 12.02Q213.34 12.37 213.30 12.44L213.30 12.44L213.30 12.44Q213.25 12.51 213.19 12.51L213.19 12.51L213.19 12.51Q213.09 12.51 212.64 11.52L212.64 11.52L209.83 5.01L209.77 11.39L209.77 11.39Q209.77 11.74 209.97 11.80L209.97 11.80L209.97 11.80Q210.21 11.87 211.17 11.87L211.17 11.87L211.17 12.41ZM230.22 12.41L226.50 12.41L226.50 11.87L226.93 11.87L226.93 11.87Q227.31 11.87 227.36 11.81L227.36 11.81L227.36 11.81Q227.43 11.74 227.44 11.46L227.44 11.46L227.44 4.14L227.44 4.14Q227.44 3.81 227.35 3.72L227.35 3.72L227.35 3.72Q227.27 3.64 226.91 3.64L226.91 3.64L226.54 3.64L226.55 3.08L229.43 3.08L229.43 3.08Q230.58 3.08 231.23 3.19L231.23 3.19L231.23 3.19Q231.83 3.28 232.31 3.68L232.31 3.68L232.31 3.68Q233.50 4.64 233.50 6.19L233.50 6.19L233.50 6.19Q233.50 7.23 232.73 7.98L232.73 7.98L232.73 7.98Q231.95 8.74 230.54 8.73L230.54 8.73L230.54 8.73Q230.37 8.73 229.95 8.70L229.95 8.70L229.95 8.70Q229.84 8.69 229.42 8.62L229.42 8.62L229.42 8.62Q229.09 8.55 228.99 8.54L228.99 8.54L228.99 8.54Q228.70 8.47 228.68 8.46L228.68 8.46L228.57 8.44L228.57 11.46L228.57 11.46Q228.57 11.74 228.70 11.81L228.70 11.81L228.70 11.81Q228.81 11.87 229.52 11.87L229.52 11.87L230.22 11.87L230.22 12.41ZM228.57 4.28L228.57 8.02L228.57 8.02Q228.92 8.29 229.89 8.29L229.89 8.29L229.89 8.29Q231.02 8.29 231.59 7.75L231.59 7.75L231.59 7.75Q232.18 7.21 232.18 6.16L232.18 6.16L232.18 6.16Q232.18 4.98 231.27 4.31L231.27 4.31L231.27 4.31Q230.38 3.64 228.99 3.64L228.99 3.64L228.99 3.64Q228.74 3.64 228.66 3.75L228.66 3.75L228.66 3.75Q228.57 3.84 228.57 4.28L228.57 4.28ZM241.86 7.83L241.86 7.83L241.86 7.83Q241.86 6.62 242.26 5.68L242.26 5.68L242.26 5.68Q242.68 4.72 243.37 4.12L243.37 4.12L243.37 4.12Q244.06 3.51 244.92 3.19L244.92 3.19L244.92 3.19Q245.76 2.88 246.71 2.88L246.71 2.88L246.71 2.88Q247.97 2.88 249.02 3.40L249.02 3.40L249.02 3.40Q250.10 3.93 250.81 5.07L250.81 5.07L250.81 5.07Q251.51 6.17 251.51 7.75L251.51 7.75L251.51 7.75Q251.51 8.70 251.21 9.54L251.21 9.54L251.21 9.54Q250.90 10.38 250.29 11.10L250.29 11.10L250.29 11.10Q249.69 11.81 248.75 12.22L248.75 12.22L248.75 12.22Q247.79 12.63 246.60 12.64L246.60 12.64L246.60 12.64Q245.46 12.64 244.53 12.23L244.53 12.23L244.53 12.23Q243.59 11.83 243.03 11.14L243.03 11.14L243.03 11.14Q242.46 10.45 242.16 9.60L242.16 9.60L242.16 9.60Q241.86 8.72 241.86 7.83ZM243.11 7.38L243.11 7.38L243.11 7.38Q243.11 8.52 243.54 9.60L243.54 9.60L243.54 9.60Q243.95 10.64 244.88 11.33L244.88 11.33L244.88 11.33Q245.79 12.03 246.98 12.04L246.98 12.04L246.98 12.04Q248.35 12.04 249.29 11.01L249.29 11.01L249.29 11.01Q250.24 9.97 250.24 8.10L250.24 8.10L250.24 8.10Q250.24 5.99 249.07 4.72L249.07 4.72L249.07 4.72Q247.93 3.46 246.42 3.45L246.42 3.45L246.42 3.45Q245.90 3.45 245.35 3.65L245.35 3.65L245.35 3.65Q244.81 3.85 244.30 4.25L244.30 4.25L244.30 4.25Q243.76 4.68 243.43 5.48L243.43 5.48L243.43 5.48Q243.11 6.27 243.11 7.38ZM259.60 10.04L259.60 10.04L260.09 9.98L260.28 10.85L260.28 10.85Q260.39 11.33 260.46 11.41L260.46 11.41L260.46 11.41Q260.52 11.49 260.93 11.64L260.93 11.64L260.93 11.64Q261.78 11.95 262.67 11.95L262.67 11.95L262.67 11.95Q263.46 11.95 264.00 11.49L264.00 11.49L264.00 11.49Q264.53 11.04 264.53 10.26L264.53 10.26L264.53 10.26Q264.53 9.65 264.07 9.21L264.07 9.21L264.07 9.21Q263.59 8.76 262.74 8.30L262.74 8.30L262.17 7.98L262.17 7.98Q261.42 7.55 261.19 7.36L261.19 7.36L261.19 7.36Q260.83 7.08 260.51 6.59L260.51 6.59L260.51 6.59Q260.20 6.10 260.20 5.46L260.20 5.46L260.20 5.46Q260.20 4.39 261.04 3.68L261.04 3.68L261.04 3.68Q261.88 2.97 262.99 2.97L262.99 2.97L262.99 2.97Q263.27 2.97 263.62 3.04L263.62 3.04L263.62 3.04Q263.82 3.08 264.15 3.17L264.15 3.17L264.39 3.25L264.39 3.25Q264.49 3.25 264.53 3.16L264.53 3.16L264.53 3.16Q264.58 3.05 264.58 2.98L264.58 2.98L264.60 2.88L265.08 2.85L265.29 5.41L264.78 5.43L264.66 4.18L264.66 4.18Q263.92 3.62 262.75 3.62L262.75 3.62L262.75 3.62Q262.11 3.62 261.60 4.05L261.60 4.05L261.60 4.05Q261.13 4.47 261.13 5.12L261.13 5.12L261.13 5.12Q261.13 5.72 261.58 6.17L261.58 6.17L261.58 6.17Q262.01 6.60 262.88 7.08L262.88 7.08L263.65 7.50L263.65 7.50Q264.60 8.03 265.13 8.59L265.13 8.59L265.13 8.59Q265.67 9.15 265.67 9.92L265.67 9.92L265.67 9.92Q265.67 10.99 264.81 11.76L264.81 11.76L264.81 11.76Q263.94 12.54 262.49 12.54L262.49 12.54L262.49 12.54Q261.93 12.54 261.42 12.41L261.42 12.41L261.42 12.41Q260.92 12.29 260.87 12.29L260.87 12.29L260.87 12.29Q260.61 12.29 260.61 12.58L260.61 12.58L260.63 12.76L260.15 12.80L260.15 12.80Q260.09 12.41 259.60 10.04ZM273.82 10.04L273.82 10.04L274.31 9.98L274.50 10.85L274.50 10.85Q274.61 11.33 274.67 11.41L274.67 11.41L274.67 11.41Q274.74 11.49 275.15 11.64L275.15 11.64L275.15 11.64Q275.99 11.95 276.89 11.95L276.89 11.95L276.89 11.95Q277.68 11.95 278.22 11.49L278.22 11.49L278.22 11.49Q278.75 11.04 278.75 10.26L278.75 10.26L278.75 10.26Q278.75 9.65 278.29 9.21L278.29 9.21L278.29 9.21Q277.81 8.76 276.96 8.30L276.96 8.30L276.38 7.98L276.38 7.98Q275.64 7.55 275.41 7.36L275.41 7.36L275.41 7.36Q275.04 7.08 274.73 6.59L274.73 6.59L274.73 6.59Q274.42 6.10 274.42 5.46L274.42 5.46L274.42 5.46Q274.42 4.39 275.26 3.68L275.26 3.68L275.26 3.68Q276.10 2.97 277.21 2.97L277.21 2.97L277.21 2.97Q277.49 2.97 277.84 3.04L277.84 3.04L277.84 3.04Q278.04 3.08 278.37 3.17L278.37 3.17L278.61 3.25L278.61 3.25Q278.71 3.25 278.75 3.16L278.75 3.16L278.75 3.16Q278.80 3.05 278.80 2.98L278.80 2.98L278.82 2.88L279.30 2.85L279.51 5.41L279.00 5.43L278.88 4.18L278.88 4.18Q278.13 3.62 276.97 3.62L276.97 3.62L276.97 3.62Q276.33 3.62 275.82 4.05L275.82 4.05L275.82 4.05Q275.34 4.47 275.34 5.12L275.34 5.12L275.34 5.12Q275.34 5.72 275.80 6.17L275.80 6.17L275.80 6.17Q276.23 6.60 277.09 7.08L277.09 7.08L277.87 7.50L277.87 7.50Q278.82 8.03 279.35 8.59L279.35 8.59L279.35 8.59Q279.88 9.15 279.88 9.92L279.88 9.92L279.88 9.92Q279.88 10.99 279.03 11.76L279.03 11.76L279.03 11.76Q278.16 12.54 276.71 12.54L276.71 12.54L276.71 12.54Q276.14 12.54 275.64 12.41L275.64 12.41L275.64 12.41Q275.14 12.29 275.08 12.29L275.08 12.29L275.08 12.29Q274.83 12.29 274.83 12.58L274.83 12.58L274.85 12.76L274.37 12.80L274.37 12.80Q274.31 12.41 273.82 10.04ZM288.65 3.64L288.07 3.64L288.08 3.08L291.59 3.08L291.59 3.64L291.36 3.64L291.36 3.64Q290.81 3.64 290.64 3.73L290.64 3.73L290.64 3.73Q290.51 3.81 290.51 4.28L290.51 4.28L290.51 11.22L290.51 11.22Q290.51 11.68 290.62 11.77L290.62 11.77L290.62 11.77Q290.73 11.87 291.26 11.87L291.26 11.87L291.81 11.87L291.82 12.41L288.24 12.41L288.22 11.87L288.59 11.87L288.59 11.87Q289.15 11.87 289.26 11.77L289.26 11.77L289.26 11.77Q289.37 11.67 289.37 11.25L289.37 11.25L289.37 4.14L289.37 4.14Q289.37 3.77 289.27 3.71L289.27 3.71L289.27 3.71Q289.16 3.64 288.65 3.64L288.65 3.64ZM299.95 3.64L299.56 3.64L299.58 3.08L302.68 3.08L302.68 3.08Q304.42 3.08 305.20 3.75L305.20 3.75L305.20 3.75Q305.98 4.42 305.97 5.37L305.97 5.37L305.97 5.37Q305.97 6.08 305.44 6.60L305.44 6.60L305.44 6.60Q304.88 7.14 304.18 7.35L304.18 7.35L304.18 7.35Q305.26 7.57 305.79 8.34L305.79 8.34L305.79 8.34Q306.31 9.08 306.30 10.01L306.30 10.01L306.30 10.01Q306.30 11.01 305.68 11.59L305.68 11.59L305.68 11.59Q305.07 12.13 304.12 12.28L304.12 12.28L304.12 12.28Q303.20 12.41 301.66 12.41L301.66 12.41L299.67 12.41L299.67 11.87L300.09 11.87L300.09 11.87Q300.45 11.87 300.57 11.80L300.57 11.80L300.57 11.80Q300.68 11.73 300.68 11.46L300.68 11.46L300.68 4.14L300.68 4.14Q300.68 3.81 300.53 3.72L300.53 3.72L300.53 3.72Q300.39 3.64 299.95 3.64L299.95 3.64ZM301.79 7.59L301.79 7.59L301.81 11.35L301.81 11.35Q301.81 11.63 301.98 11.71L301.98 11.71L301.98 11.71Q302.15 11.80 302.72 11.80L302.72 11.80L302.72 11.80Q304.98 11.80 304.98 9.91L304.98 9.91L304.98 9.91Q304.98 9.22 304.66 8.73L304.66 8.73L304.66 8.73Q304.34 8.24 303.82 8.02L303.82 8.02L303.82 8.02Q303.23 7.75 302.79 7.68L302.79 7.68L302.79 7.68Q302.31 7.59 301.79 7.59ZM301.81 4.01L301.81 7.19L303.19 7.19L303.19 7.19Q303.84 7.19 304.26 6.66L304.26 6.66L304.26 6.66Q304.66 6.15 304.67 5.54L304.67 5.54L304.67 5.54Q304.67 4.85 304.08 4.27L304.08 4.27L304.08 4.27Q303.51 3.69 302.23 3.69L302.23 3.69L302.23 3.69Q301.81 3.69 301.81 4.01L301.81 4.01ZM314.84 3.64L314.35 3.64L314.36 3.08L317.95 3.08L317.95 3.64L317.32 3.64L317.32 3.64Q316.94 3.64 316.83 3.72L316.83 3.72L316.83 3.72Q316.72 3.80 316.72 4.16L316.72 4.16L316.72 11.22L316.72 11.22Q316.72 11.57 316.80 11.67L316.80 11.67L316.80 11.67Q316.89 11.77 317.18 11.77L317.18 11.77L317.18 11.77Q320.05 11.74 320.71 11.63L320.71 11.63L320.71 11.63Q320.92 11.61 321.00 11.39L321.00 11.39L321.00 11.39Q321.08 11.17 321.28 10.05L321.28 10.05L321.77 10.08L321.31 12.41L314.55 12.41L314.54 11.87L314.92 11.87L314.92 11.87Q315.43 11.87 315.50 11.80L315.50 11.80L315.50 11.80Q315.58 11.72 315.59 11.33L315.59 11.33L315.59 4.09L315.59 4.09Q315.59 3.80 315.43 3.72L315.43 3.72L315.43 3.72Q315.28 3.64 314.84 3.64L314.84 3.64ZM329.52 3.64L329.51 3.08L336.72 3.08L336.72 3.08Q336.73 4.14 336.79 5.28L336.79 5.28L336.24 5.30L336.24 5.30Q336.23 4.66 336.17 4.25L336.17 4.25L336.17 4.25Q336.13 3.89 336.08 3.80L336.08 3.80L336.08 3.80Q336.02 3.71 335.90 3.69L335.90 3.69L335.90 3.69Q335.81 3.68 335.22 3.68L335.22 3.68L332.84 3.68L332.84 3.68Q332.29 3.68 332.15 3.77L332.15 3.77L332.15 3.77Q332.03 3.86 332.03 4.33L332.03 4.33L332.03 6.28L332.03 6.28Q332.03 6.69 332.08 6.76L332.08 6.76L332.08 6.76Q332.15 6.84 332.49 6.84L332.49 6.84L334.61 6.84L334.61 6.84Q334.97 6.84 335.05 6.73L335.05 6.73L335.05 6.73Q335.13 6.63 335.14 6.14L335.14 6.14L335.14 5.61L335.65 5.63L335.65 8.97L335.14 8.97L335.14 8.24L335.14 8.24Q335.14 7.66 335.06 7.57L335.06 7.57L335.06 7.57Q334.98 7.46 334.63 7.46L334.63 7.46L332.53 7.46L332.53 7.46Q332.20 7.46 332.11 7.54L332.11 7.54L332.11 7.54Q332.03 7.63 332.03 7.89L332.03 7.89L332.03 11.20L332.03 11.20Q332.03 11.57 332.11 11.67L332.11 11.67L332.11 11.67Q332.20 11.77 332.47 11.77L332.47 11.77L332.47 11.77Q335.39 11.75 335.92 11.69L335.92 11.69L335.92 11.69Q336.44 11.63 336.52 11.38L336.52 11.38L336.53 11.36L336.53 11.35L336.76 10.17L337.24 10.25L336.89 12.41L329.79 12.41L329.79 11.87L330.16 11.87L330.16 11.87Q330.72 11.87 330.80 11.80L330.80 11.80L330.80 11.80Q330.89 11.72 330.89 11.33L330.89 11.33L330.89 4.24L330.89 4.24Q330.89 3.82 330.74 3.73L330.74 3.73L330.74 3.73Q330.57 3.64 329.92 3.64L329.92 3.64L329.52 3.64Z"></path></g></svg>