<svg data-v-29081953="" xmlns="http://www.w3.org/2000/svg" viewBox="0 0 300 300"><!----><defs data-v-29081953=""><!----></defs><rect data-v-29081953="" fill="#111F51" x="0" y="0" width="300px" height="300px" class="logo-background-square"></rect><!----><defs data-v-29081953=""><!----></defs><g data-v-29081953="" id="b7744ffa-67b5-434c-938e-c4b8732e880b" fill="#19CEDA" stroke="none" transform="matrix(3.662089008839747,0,0,3.662089008839747,32.8099290679039,32.81499659868071)"><path d="M36.801 32.254a.69.69 0 0 0-.293-.059c-.145-.007-.293-.007-.449-.008-.36-.001-.731-.003-1.109-.081-.401-.083-.922-.411-1.096-.853-.178-.452-.096-1.005.04-1.372.419-1.13.863-2.271 1.292-3.374.256-.658.512-1.316.764-1.975.067-.176.066-.265.063-.295-.026-.014-.108-.046-.294-.048-.802-.005-1.604-.004-2.406-.003l-1.004.001-1.008-.001c-.839-.001-1.678-.002-2.517.002-.219.001-.271.038-.272.039 0 0-.043.049-.067.275a156.664 156.664 0 0 1-.307 2.709c-.142 1.156-.287 2.312-.431 3.468-.167 1.336-.334 2.671-.497 4.007-.029.236.013.303.013.304 0 0 .066.055.327.056.394.002.788.001 1.182 0l.704-.001c.201 0 .403 0 .604.002.601.004 1.057.183 1.355.531.197.23.41.648.308 1.331-.242 1.61-.521 3.239-.79 4.815l-.119.695c-.026.155-.067.523.127.6a.4.4 0 0 0 .147.031c.191 0 .334-.221.403-.353 2.025-3.917 3.692-7.155 5.245-10.19a.68.68 0 0 0 .085-.253z"></path><path d="M44.918 17.687c-3.807-3.552-8.016-5.352-12.51-5.352-.134 0-.271.002-.408.007a11.219 11.219 0 0 0-.408-.007c-4.493 0-8.703 1.799-12.51 5.352-4.674 4.359-7.838 12.478-3.745 19.998.376.692.746 1.406 1.103 2.095l.186.359a95.251 95.251 0 0 0 1.689 3.164c1.518 2.679 2.472 5.242 2.914 7.845.105.584.183 1.198.232 1.819.161 2.081 1.396 4.393 3.388 6.347l.066.061A10.754 10.754 0 0 0 32 62.037c2.609 0 5.124-.946 7.085-2.662l.066-.061c1.992-1.953 3.227-4.266 3.388-6.342.049-.626.127-1.24.235-1.836.44-2.591 1.394-5.154 2.912-7.833a90.691 90.691 0 0 0 1.697-3.181l.178-.342c.357-.692.726-1.403 1.103-2.095 4.092-7.52.929-15.639-3.746-19.998zm.954 18.477c-.391.721-.77 1.45-1.134 2.154l-.186.362c-.553 1.066-1.073 2.073-1.628 3.054a29.99 29.99 0 0 0-2.225 4.82 4.976 4.976 0 0 1-4.686 3.338h-8.025a4.975 4.975 0 0 1-4.686-3.338 29.831 29.831 0 0 0-2.225-4.82c-.555-.98-1.076-1.988-1.638-3.073l-.176-.342c-.364-.704-.743-1.433-1.134-2.154-3.286-6.034-.685-12.603 3.12-16.155 3.2-2.983 6.682-4.496 10.344-4.496.115 0 .235.002.352.007h.112c.117-.005.237-.007.352-.007 3.662 0 7.144 1.513 10.344 4.496 3.803 3.551 6.404 10.121 3.119 16.154zM5.97 45.175c-.022.289.041.601.214.938.456.889 1.448 1.456 2.446 1.201a2.15 2.15 0 0 0 .41-.152c.899-.44 1.767-.956 2.604-1.506.963-.633 1.191-1.753.632-2.716-.546-.942-1.687-1.331-2.68-.831-.895.45-1.803.915-2.591 1.521-.567.435-.988.94-1.035 1.545zM53.751 41.916c-1.164.001-1.889.516-2.203 1.399-.302.849-.051 1.766.732 2.29.81.541 1.663 1.021 2.522 1.483 1.065.572 2.277.237 2.845-.74.57-.982.255-2.194-.774-2.834a38.89 38.89 0 0 0-2.321-1.332c-.31-.164-.674-.225-.801-.266zM47.826 7.956c.004-1.15-.536-1.918-1.389-2.211-.868-.298-1.85-.012-2.366.776-.518.791-.983 1.62-1.432 2.453-.587 1.089-.274 2.233.734 2.827 1.004.593 2.164.305 2.829-.739.478-.752.928-1.523 1.352-2.306.166-.308.23-.672.272-.8zM8.386 15.728c-1.153.002-1.921.547-2.206 1.401-.283.849-.016 1.797.746 2.298a32.63 32.63 0 0 0 2.525 1.477c1.068.571 2.267.233 2.839-.754.573-.988.261-2.176-.781-2.826a37.513 37.513 0 0 0-2.321-1.331c-.31-.165-.674-.225-.802-.265zM57.9 17.661c-.004-1.418-1.547-2.414-2.95-1.738-.851.41-1.665.906-2.469 1.406-1.038.645-1.346 1.842-.773 2.828.57.98 1.774 1.312 2.844.743a48.048 48.048 0 0 0 2.389-1.381c.641-.39.979-.972.959-1.858zM18.239 5.653c-1.578 0-2.568 1.587-1.844 3.014.415.818.902 1.602 1.39 2.38.659 1.048 1.816 1.348 2.822.766 1.014-.587 1.338-1.728.761-2.82a47.119 47.119 0 0 0-1.332-2.319c-.404-.669-1.002-1.028-1.797-1.021zM34.059 5.449c0-.531.026-1.064-.005-1.594-.064-1.095-.951-1.895-2.061-1.893-1.11.003-2.003.807-2.044 1.906a41.061 41.061 0 0 0-.001 2.936c.037 1.096.931 1.934 2.017 1.949a2.046 2.046 0 0 0 2.093-1.963c.021-.445.002-.893.001-1.341zM5.846 29.494c-.474 0-.948-.013-1.421.003-1.162.038-2 .88-2.017 2.013-.017 1.14.796 2.038 1.946 2.081a38.58 38.58 0 0 0 2.926-.001c1.146-.045 1.959-.954 1.936-2.092A2.006 2.006 0 0 0 7.268 29.5c-.474-.022-.948-.004-1.422-.006zM58.209 29.494c-.474 0-.948-.014-1.421.003-1.157.04-1.991.892-2.003 2.027-.012 1.139.805 2.027 1.961 2.067.974.034 1.952.037 2.926-.002 1.109-.045 1.917-.928 1.922-2.022.005-1.14-.821-2.019-1.963-2.068-.474-.021-.948-.004-1.422-.005z"></path></g><!----></svg>